<svg width="40" height="37" viewBox="0 0 40 37" fill="none" xmlns="http://www.w3.org/2000/svg">
<path d="M14.4307 5.9639C14.4883 5.96521 14.5459 5.96652 14.6053 5.96786C14.7952 5.97236 14.985 5.978 15.1748 5.98367C15.3079 5.9871 15.441 5.99046 15.5742 5.99376C15.8534 6.00084 16.1326 6.00844 16.4117 6.01645C16.7665 6.02663 17.1213 6.03593 17.4762 6.04489C17.8177 6.05356 18.1592 6.06267 18.5007 6.07181C18.5963 6.07431 18.5963 6.07431 18.6939 6.07687C21.6166 6.15477 21.6166 6.15477 22.4154 6.93228C22.7612 7.35812 22.9861 7.84619 23.2255 8.33704C23.3578 8.60367 23.4951 8.86741 23.6334 9.13101C23.6849 9.22941 23.7364 9.32781 23.7879 9.42622C23.8649 9.57339 23.9419 9.72056 24.019 9.86768C24.0913 10.0058 24.1632 10.1442 24.235 10.2826C24.2978 10.4032 24.2978 10.4032 24.362 10.5263C24.4524 10.7183 24.4524 10.7183 24.4524 10.8667C24.5014 10.8422 24.5504 10.8178 24.6008 10.7925C24.7486 10.7708 24.897 10.7527 25.0455 10.7364C25.1389 10.726 25.2323 10.7156 25.3285 10.7049C25.4311 10.6938 25.5336 10.6827 25.6361 10.6716C25.7412 10.6601 25.8462 10.6486 25.9512 10.637C26.1718 10.6128 26.3923 10.5888 26.6129 10.565C26.8946 10.5345 27.1763 10.5035 27.4579 10.4724C27.6751 10.4484 27.8922 10.4247 28.1095 10.4011C28.2132 10.3898 28.317 10.3784 28.4208 10.3669C28.5665 10.3509 28.7124 10.3352 28.8582 10.3195C28.941 10.3105 29.0237 10.3015 29.109 10.2922C29.7253 10.2432 30.1909 10.2649 30.6729 10.6719C31.0453 11.1189 31.1807 11.4703 31.1321 12.0542C30.9809 12.5434 30.6706 12.8967 30.2415 13.1675C29.5896 13.3624 28.8671 13.3864 28.1915 13.4603C28.0733 13.4734 27.9551 13.4865 27.8369 13.4996C27.5905 13.5269 27.3441 13.5539 27.0976 13.5808C26.7841 13.6151 26.4706 13.65 26.1572 13.6852C25.9135 13.7124 25.6698 13.7391 25.4261 13.7658C25.3106 13.7784 25.1951 13.7913 25.0797 13.8043C23.1348 14.0227 23.1348 14.0227 22.708 13.7227C22.4599 13.4773 22.3123 13.1773 22.1516 12.8706C22.0874 12.7499 22.0231 12.6292 21.9588 12.5085C21.7739 12.1601 21.5911 11.8106 21.4094 11.4605C20.6677 12.64 19.9784 13.8519 19.2849 15.0601C19.249 15.1225 19.213 15.185 19.176 15.2493C18.9676 15.6136 18.7734 15.9818 18.5891 16.3589C18.6302 16.3721 18.6713 16.3853 18.7137 16.3989C19.1069 16.5271 19.4892 16.6706 19.8703 16.8312C19.9262 16.8545 19.982 16.8779 20.0396 16.9019C20.2165 16.9758 20.3931 17.0501 20.5698 17.1243C20.6867 17.1732 20.8036 17.222 20.9205 17.2709C21.2034 17.3892 21.4861 17.5081 21.7687 17.6273C21.8741 17.6718 21.9797 17.7161 22.0852 17.7604C22.2291 17.8207 22.3729 17.8814 22.5166 17.9422C22.5977 17.9763 22.6787 18.0104 22.7622 18.0456C23.2658 18.277 23.4971 18.596 23.7102 19.105C23.8012 19.3866 23.8739 19.6718 23.9456 19.9588C23.9667 20.0408 23.9878 20.1228 24.0095 20.2073C24.0774 20.4721 24.1443 20.7372 24.2112 21.0022C24.2575 21.1841 24.3039 21.366 24.3504 21.5479C24.4195 21.8186 24.4885 22.0893 24.5573 22.3601C24.6851 22.8635 24.8152 23.3663 24.9493 23.8681C24.9776 23.9745 25.0058 24.0809 25.034 24.1873C25.0836 24.3739 25.1339 24.5603 25.1847 24.7467C25.3787 25.4828 25.4367 26.0646 25.0461 26.7496C24.7806 27.062 24.4867 27.2606 24.0813 27.3433C23.5363 27.3866 23.1924 27.2702 22.7314 26.9629C22.1863 26.4716 22.0796 25.5863 21.9046 24.9039C21.8751 24.7906 21.8456 24.6773 21.816 24.564C21.7545 24.3279 21.6935 24.0917 21.6327 23.8555C21.5547 23.5526 21.476 23.2499 21.3971 22.9473C21.3362 22.7139 21.2757 22.4805 21.2152 22.2471C21.1863 22.1354 21.1573 22.0237 21.1282 21.912C21.0878 21.7565 21.0478 21.6009 21.0078 21.4453C20.985 21.3568 20.9621 21.2683 20.9386 21.1772C20.8899 20.9605 20.8899 20.9605 20.8899 20.7378C20.826 20.7291 20.7622 20.7204 20.6964 20.7114C20.4403 20.6628 20.221 20.5882 19.9787 20.4929C19.888 20.4574 19.7973 20.422 19.7039 20.3855C19.606 20.3468 19.5081 20.3081 19.4102 20.2693C19.309 20.2297 19.2079 20.1901 19.1067 20.1505C18.8949 20.0677 18.6831 19.9846 18.4714 19.9014C17.9829 19.7097 17.4934 19.5208 17.0039 19.3316C16.7577 19.2365 16.5116 19.1412 16.2654 19.0459C16.1837 19.0142 16.1019 18.9826 16.0177 18.95C15.9601 18.9277 15.9024 18.9054 15.843 18.8824C15.8238 18.9347 15.8045 18.9869 15.7847 19.0408C15.6873 19.2706 15.5703 19.4737 15.4406 19.6869C15.4031 19.7487 15.4031 19.7487 15.3649 19.8118C15.2834 19.9459 15.2014 20.0798 15.1194 20.2137C15.0914 20.2595 15.0633 20.3053 15.0345 20.3524C14.8903 20.5879 14.7458 20.8232 14.6009 21.0582C14.4458 21.3101 14.2925 21.5631 14.1392 21.816C14.0501 21.9608 13.9609 22.1054 13.8716 22.25C13.832 22.3161 13.7923 22.3821 13.7515 22.4501C13.4875 22.8722 13.1703 23.2883 12.6772 23.45C12.4363 23.497 12.1959 23.5042 11.9513 23.5128C11.8961 23.515 11.8409 23.5172 11.784 23.5194C11.6013 23.5265 11.4186 23.5332 11.2359 23.5399C11.1079 23.5448 10.9799 23.5496 10.8519 23.5545C10.583 23.5648 10.314 23.5748 10.045 23.5847C9.70386 23.5972 9.36271 23.6102 9.02157 23.6233C8.75661 23.6335 8.49163 23.6435 8.22666 23.6533C8.10113 23.658 7.9756 23.6628 7.85008 23.6676C7.2164 23.6919 6.58263 23.7119 5.9485 23.7187C5.89726 23.7198 5.84603 23.7209 5.79324 23.722C5.3415 23.7242 4.98464 23.6264 4.63599 23.3355C4.30533 22.9393 4.16147 22.5488 4.17067 22.0346C4.21326 21.644 4.34615 21.3189 4.63164 21.0449C5.01363 20.7501 5.30146 20.6561 5.78522 20.6265C5.88289 20.6204 5.98057 20.6143 6.08121 20.6081C6.18703 20.6018 6.29286 20.5956 6.39868 20.5894C6.50726 20.5829 6.61584 20.5764 6.72442 20.5699C7.04256 20.551 7.36075 20.5329 7.67896 20.5152C7.76118 20.5106 7.84339 20.5059 7.9281 20.5012C9.03287 20.4411 10.1352 20.4319 11.2415 20.441C11.2611 20.3877 11.2808 20.3345 11.301 20.2796C11.3921 20.0647 11.4995 19.8801 11.6244 19.6831C11.6708 19.6096 11.7172 19.5361 11.765 19.4604C11.8388 19.3442 11.8388 19.3442 11.9141 19.2256C12.0151 19.0647 12.1161 18.9037 12.217 18.7426C12.3826 18.4793 12.5492 18.2168 12.7174 17.9552C13.0181 17.4811 13.2179 17.0622 13.332 16.5068C13.4602 16.0459 13.7363 15.6485 13.9875 15.2456C14.0555 15.136 14.1234 15.0263 14.1914 14.9166C14.3075 14.7293 14.4238 14.5421 14.5404 14.3552C14.92 13.7448 15.287 13.1274 15.6528 12.5088C16.1561 11.658 16.6644 10.8106 17.1804 9.96742C17.4049 9.6006 17.6263 9.23195 17.8469 8.86284C17.7146 8.86413 17.7146 8.86413 17.5796 8.86545C16.6276 8.87166 15.6804 8.83988 14.7297 8.78862C14.6996 8.85379 14.6996 8.85379 14.6688 8.92028C14.5819 9.08433 14.4874 9.21209 14.3682 9.35396C14.326 9.40457 14.2838 9.45519 14.2403 9.50734C14.1952 9.56101 14.15 9.61467 14.1035 9.66996C13.7733 10.0664 13.4463 10.4643 13.1294 10.8714C11.4026 13.0786 11.4026 13.0786 10.8379 13.1768C10.4157 13.1899 10.0228 13.1073 9.69562 12.8298C9.41437 12.5219 9.24042 12.2302 9.23552 11.8029C9.27248 11.1689 9.60602 10.7856 9.98901 10.3055C10.0622 10.213 10.1354 10.1205 10.2085 10.028C10.245 9.98184 10.2815 9.93566 10.3191 9.88809C10.5054 9.65131 10.6884 9.41199 10.8717 9.17288C11.1861 8.7632 11.5033 8.35566 11.8211 7.9486C12.0234 7.68918 12.2248 7.42929 12.422 7.16595C12.4548 7.12237 12.4876 7.07879 12.5214 7.0339C12.6077 6.91895 12.6935 6.80358 12.7792 6.68817C13.2609 6.1182 13.6962 5.93915 14.4307 5.9639Z" fill="#24C6D6"/>
<path d="M26.1594 0.847211C26.8263 1.37954 27.2488 2.14952 27.3469 2.99956C27.4398 3.92116 27.1236 4.75431 26.5468 5.46269C25.9886 6.06655 25.2695 6.4457 24.4501 6.50378C23.4766 6.53221 22.6714 6.24673 21.9475 5.5833C21.2839 4.87576 21.0652 4.02722 21.0896 3.07928C21.1352 2.26965 21.5007 1.54542 22.0901 0.99304C23.3171 -0.00333333 24.859 -0.117133 26.1594 0.847211Z" fill="#24C6D6"/>
<path d="M30.4641 24.0035C30.7356 24.1549 30.8849 24.2635 31.0579 24.523C31.0772 24.7323 31.0772 24.7323 31.0782 24.992C31.0788 25.0636 31.0788 25.0636 31.0794 25.1367C31.0805 25.297 31.0806 25.4573 31.0806 25.6177C31.0812 25.7325 31.0818 25.8473 31.0825 25.9622C31.0841 26.2744 31.0848 26.5866 31.0851 26.8988C31.0854 27.0939 31.0859 27.2889 31.0864 27.484C31.0882 28.1645 31.0892 28.845 31.0894 29.5255C31.0897 30.1597 31.0919 30.794 31.095 31.4283C31.0976 31.9728 31.0988 32.5173 31.0988 33.0619C31.0989 33.3871 31.0995 33.7123 31.1016 34.0376C31.1036 34.3436 31.1037 34.6495 31.1026 34.9555C31.1024 35.0677 31.1029 35.1799 31.1041 35.2921C31.1135 36.2456 31.1135 36.2456 30.8788 36.5378C30.5716 36.789 30.3323 36.7984 29.9446 36.7691C29.7261 36.7041 29.6648 36.6442 29.5303 36.4595C29.4047 36.2089 29.3969 36.0419 29.3963 35.7622C29.3957 35.6903 29.3957 35.6903 29.3951 35.617C29.394 35.4569 29.3945 35.2969 29.3951 35.1369C29.3946 35.0219 29.3941 34.9069 29.3935 34.7919C29.3922 34.48 29.3923 34.1681 29.3927 33.8562C29.3929 33.5958 29.3925 33.3353 29.392 33.0749C29.391 32.4605 29.3911 31.8462 29.3919 31.2318C29.3928 30.598 29.3918 29.9643 29.3898 29.3305C29.3881 28.7862 29.3876 28.2419 29.3881 27.6976C29.3883 27.3726 29.3881 27.0476 29.3869 26.7226C29.3857 26.417 29.386 26.1115 29.3874 25.8059C29.3877 25.6938 29.3874 25.5817 29.3867 25.4696C29.3857 25.3165 29.3865 25.1634 29.3878 25.0103C29.3879 24.9247 29.3879 24.839 29.3879 24.7508C29.433 24.4741 29.5298 24.3519 29.7219 24.1519C29.9646 23.982 30.1724 23.9685 30.4641 24.0035Z" fill="#24C6D6"/>
<path d="M20.2384 33.5414C20.7244 33.8018 21.3173 33.8288 21.8547 33.7261C22.1704 33.6142 22.4661 33.4663 22.7612 33.3088C23.6589 32.8308 24.7211 32.7475 25.7002 33.0303C26.0954 33.1684 26.4579 33.3536 26.8271 33.5493C27.1303 33.6889 27.436 33.7567 27.7627 33.8198C27.9407 33.8745 27.9407 33.8745 28.0891 34.0972C28.1304 34.5592 28.1304 34.5592 27.9992 34.742C27.7227 34.9448 27.3747 34.8832 27.05 34.8394C26.74 34.7414 26.4521 34.6091 26.1594 34.4683C26.0127 34.3999 25.8658 34.3319 25.7188 34.2642C25.6553 34.234 25.5919 34.2037 25.5265 34.1726C24.8591 33.8985 24.1282 33.9605 23.4713 34.2248C23.2499 34.3268 23.0353 34.4384 22.8196 34.5518C21.9664 34.9894 21.0636 35.0029 20.1477 34.7652C19.9386 34.6833 19.7479 34.5811 19.554 34.4683C18.8767 34.0821 18.3004 33.7976 17.5057 33.9972C17.1532 34.1182 16.8261 34.2722 16.496 34.4449C16.0134 34.6972 15.5744 34.8672 15.0266 34.9136C14.9759 34.9179 14.9252 34.9222 14.873 34.9267C14.0932 34.9566 13.4456 34.7095 12.7615 34.3686C12.2461 34.1233 11.8259 34.0764 11.2594 34.063C10.9787 34.0163 10.8905 33.9513 10.7219 33.7261C10.6671 33.4398 10.6996 33.3189 10.8472 33.0674C11.2962 32.7794 11.7949 32.8537 12.3014 32.9616C12.8199 33.1107 13.3035 33.3234 13.7887 33.5577C14.3151 33.8071 14.9974 33.8619 15.5564 33.6723C15.8659 33.5361 16.1596 33.3705 16.454 33.2047C17.7428 32.4941 19.0305 32.8441 20.2384 33.5414Z" fill="#24C6D6"/>
<path d="M20.2132 29.5148C20.7496 29.8146 21.4781 29.8108 22.0719 29.665C22.2537 29.5931 22.4243 29.5131 22.5969 29.4214C23.5845 28.8996 24.5275 28.7415 25.6251 29.0413C25.9493 29.155 26.253 29.3022 26.5607 29.4543C26.9276 29.6322 27.2874 29.7377 27.689 29.8146C27.8877 29.873 27.9689 29.9218 28.0891 30.0894C28.1213 30.2332 28.1213 30.2332 28.1216 30.3863C28.123 30.4368 28.1245 30.4873 28.1259 30.5394C28.0891 30.6831 28.0891 30.6831 27.9624 30.8133C27.6453 30.9856 27.3182 30.8986 26.9758 30.8316C26.5816 30.7109 26.2225 30.5301 25.8579 30.3399C25.0607 29.9344 24.3535 29.9458 23.5148 30.217C23.2686 30.3106 23.0429 30.4207 22.8103 30.544C21.9909 30.9671 21.1121 30.9965 20.2182 30.7756C19.8662 30.6566 19.562 30.5002 19.2478 30.3028C18.6507 29.9314 18.0887 29.8815 17.4016 30.0152C16.9823 30.1416 16.605 30.3404 16.2187 30.544C15.4015 30.9547 14.4766 31.0355 13.5962 30.7539C13.3766 30.6625 13.1625 30.5642 12.9485 30.4605C12.4208 30.2183 11.9691 30.1204 11.3899 30.0894C11.2096 30.0755 11.0481 30.053 10.8704 30.0152C10.6963 29.7541 10.6789 29.6546 10.7219 29.3472C10.914 29.0683 11.0495 28.9882 11.376 28.8973C12.1866 28.8514 13.011 29.1974 13.7223 29.5499C14.2372 29.8038 14.8991 29.8052 15.4537 29.6676C15.6386 29.5941 15.8141 29.5116 15.9915 29.4214C17.5124 28.6734 18.7352 28.671 20.2132 29.5148Z" fill="#24C6D6"/>
<path d="M8.86645 26.7496C9.18086 26.8853 9.32119 27.0326 9.4602 27.3433C9.49349 27.6225 9.4906 27.9002 9.48901 28.1811C9.4894 28.2658 9.48979 28.3504 9.4902 28.4376C9.49118 28.7174 9.49053 28.9972 9.48978 29.2771C9.48993 29.4716 9.49014 29.6662 9.49042 29.8608C9.49083 30.2687 9.49029 30.6766 9.48923 31.0845C9.48802 31.5552 9.48841 32.0259 9.48964 32.4966C9.49077 32.9503 9.49065 33.404 9.49 33.8577C9.48985 34.0503 9.49003 34.243 9.49055 34.4356C9.49112 34.7051 9.49025 34.9746 9.48901 35.2441C9.48969 35.3632 9.48969 35.3632 9.49038 35.4848C9.48667 35.921 9.4503 36.2367 9.23755 36.6206C9.06229 36.7856 8.947 36.8386 8.707 36.8526C8.38731 36.8356 8.23194 36.7956 7.97583 36.5928C7.77478 36.3289 7.74386 36.1412 7.74275 35.8191C7.74233 35.7457 7.7419 35.6724 7.74147 35.5968C7.74138 35.5164 7.7413 35.436 7.74121 35.3532C7.74085 35.2684 7.74048 35.1837 7.7401 35.0964C7.73901 34.8154 7.73851 34.5345 7.7381 34.2535C7.73767 34.0585 7.73724 33.8635 7.73682 33.6686C7.7361 33.3118 7.73567 32.955 7.73544 32.5982C7.73511 32.0735 7.73381 31.5488 7.73166 31.0241C7.72986 30.5693 7.72929 30.1145 7.72916 29.6597C7.72893 29.4663 7.72834 29.273 7.72736 29.0797C7.7261 28.8093 7.72624 28.5389 7.72672 28.2685C7.72603 28.1885 7.72535 28.1086 7.72465 28.0262C7.72692 27.6199 7.74107 27.3204 7.97583 26.9722C8.2635 26.7325 8.49862 26.7101 8.86645 26.7496Z" fill="#24C6D6"/>
<path d="M34.5322 29.055C34.9167 29.1844 35.2821 29.3608 35.6463 29.5383C36.3122 29.8619 36.9201 29.876 37.6245 29.6438C37.8886 29.5395 38.1387 29.4137 38.3887 29.2794C38.6809 29.1368 38.9399 29.1113 39.2637 29.106C39.3694 29.1031 39.3694 29.1031 39.4773 29.1002C39.6672 29.1246 39.6672 29.1246 39.802 29.2208C39.9489 29.4321 39.9165 29.6188 39.8899 29.8667C39.7208 30.0997 39.548 30.1301 39.2729 30.1822C38.7899 30.2916 38.3961 30.4871 37.9625 30.7185C37.336 31.0334 36.3817 31.0109 35.7104 30.8223C35.4324 30.7228 35.1728 30.5905 34.908 30.4605C34.4774 30.2529 34.0725 30.156 33.603 30.0913C33.3941 30.0606 33.2396 30.0373 33.0687 29.9088C32.9525 29.7423 32.923 29.6245 32.9133 29.4214C33.216 28.7874 33.9244 28.8885 34.5322 29.055Z" fill="#24C6D6"/>
<path d="M33.637 32.9607C34.4035 32.9675 35.0433 33.2179 35.7136 33.5699C36.3384 33.8742 36.9581 33.8638 37.6059 33.6565C37.8438 33.5654 38.0696 33.4569 38.2988 33.3457C38.7654 33.1254 39.1626 32.9642 39.6672 33.1324C39.8157 33.2808 39.8157 33.2808 39.8945 33.5359C39.8899 33.8003 39.8899 33.8003 39.7641 33.9589C39.5773 34.11 39.4596 34.1509 39.2266 34.1993C38.8885 34.2811 38.5939 34.3966 38.2803 34.5472C37.3351 34.9942 36.4449 35.0502 35.4394 34.7069C35.1634 34.5965 34.9029 34.4656 34.6401 34.3274C34.2305 34.1283 33.8076 34.0805 33.3572 34.0558C33.172 34.0145 33.105 33.9468 32.9875 33.8003C32.9226 33.6241 32.9226 33.6241 32.9133 33.4292C33.1158 33.0243 33.1916 32.9709 33.637 32.9607Z" fill="#24C6D6"/>
<path d="M4.42957 33.2486C4.9343 33.4933 5.3371 33.6356 5.89771 33.6519C6.16566 33.6767 6.30022 33.6957 6.51929 33.8514C6.6763 34.0748 6.67977 34.2006 6.63989 34.4683C6.50551 34.6896 6.29832 34.7569 6.05194 34.8179C5.20005 34.9364 4.4489 34.4968 3.72043 34.1172C3.29849 33.9161 2.87096 33.8846 2.40942 33.9488C2.15271 34.0526 1.91323 34.1709 1.67043 34.3039C1.40557 34.4097 1.27023 34.3999 0.999268 34.3199C0.85083 34.1714 0.85083 34.1714 0.818359 33.8838C0.82658 33.6557 0.835 33.5968 0.985352 33.4153C2.17229 32.7404 3.1835 32.6422 4.42957 33.2486Z" fill="#24C6D6"/>
<path d="M4.81719 29.4756C5.13002 29.6309 5.36031 29.6493 5.70752 29.6348C6.03365 29.6313 6.23302 29.65 6.49146 29.8667C6.63989 30.0152 6.63989 30.0152 6.67236 30.2286C6.63989 30.4605 6.63989 30.4605 6.4729 30.6321C6.07563 30.8759 5.66488 30.8858 5.21118 30.8C4.72308 30.6691 4.28663 30.4438 3.84161 30.2097C3.32014 29.9533 2.84947 29.8286 2.2836 30.0024C2.0074 30.1103 1.76611 30.2214 1.5188 30.3863C1.28964 30.4101 1.1373 30.4224 0.934327 30.3074C0.799151 30.0746 0.81452 29.9073 0.850831 29.6441C1.15997 29.1804 1.75191 29.0089 2.26795 28.8558C3.17981 28.6745 4.02809 29.0527 4.81719 29.4756Z" fill="#24C6D6"/>
<path d="M10.9446 29.0503C10.9936 29.0748 11.0426 29.0993 11.093 29.1246C11.0548 29.1659 11.0165 29.2072 10.9771 29.2498C10.8496 29.4163 10.8496 29.4163 10.8889 29.6209C10.9287 29.7879 10.9287 29.7879 11.0188 29.8667C11.1684 29.8841 11.3185 29.8974 11.4688 29.9085C11.5507 29.9147 11.6327 29.9209 11.7172 29.9273C11.8124 29.9341 11.8124 29.9341 11.9094 29.941C11.9094 29.9655 11.9094 29.9899 11.9094 30.0152C11.7674 30.0357 11.6251 30.0538 11.4827 30.0708C11.4035 30.0812 11.3242 30.0915 11.2426 30.1022C11.0188 30.0894 11.0188 30.0894 10.8434 29.956C10.6809 29.7372 10.683 29.6142 10.7219 29.3472C10.8333 29.1709 10.8333 29.1709 10.9446 29.0503Z" fill="#24C6D6"/>
<path d="M33.136 33.0581C33.185 33.0581 33.234 33.0581 33.2844 33.0581C33.2615 33.0979 33.2385 33.1377 33.2148 33.1788C33.1228 33.3846 33.0921 33.5777 33.0618 33.8003C33.0128 33.7514 32.9638 33.7024 32.9133 33.6519C32.9471 33.2471 32.9471 33.2471 33.136 33.0581Z" fill="#24C6D6"/>
<path d="M11.5383 8.26909C11.5873 8.26909 11.6363 8.26909 11.6868 8.26909C11.6682 8.48247 11.6682 8.48247 11.6125 8.7144C11.4595 8.81645 11.4595 8.81645 11.3157 8.86284C11.3563 8.61238 11.394 8.48563 11.5383 8.26909Z" fill="#24C6D6"/>
</svg>
