<svg width="42" height="50" viewBox="0 0 42 50" fill="none" xmlns="http://www.w3.org/2000/svg">
<path d="M11.2488 10.6593C11.323 10.6603 11.3973 10.6613 11.4738 10.6624C11.6769 10.6652 11.88 10.6684 12.0831 10.6717C12.2533 10.6744 12.4235 10.677 12.5937 10.6795C12.9959 10.6856 13.398 10.692 13.8002 10.6987C14.2132 10.7055 14.6262 10.7117 15.0393 10.7175C15.3952 10.7226 15.7512 10.7281 16.1072 10.7339C16.3191 10.7373 16.5311 10.7407 16.7431 10.7435C16.9802 10.7469 17.2173 10.7509 17.4545 10.7551C17.5578 10.7564 17.5578 10.7564 17.6632 10.7576C18.5837 10.776 19.311 10.8868 19.9999 11.5308C20.1152 11.6595 20.2197 11.7949 20.3239 11.9327C20.384 12.0107 20.4442 12.0887 20.5044 12.1667C20.5347 12.2063 20.565 12.2459 20.5962 12.2867C20.7381 12.4715 20.8822 12.6546 21.0264 12.8378C21.0546 12.8737 21.0828 12.9097 21.1119 12.9468C21.289 13.1721 21.4676 13.3959 21.6473 13.6191C21.98 14.0326 22.3048 14.4513 22.6256 14.8741C22.9071 15.2435 23.1982 15.6045 23.4938 15.9627C23.7405 16.2626 23.7405 16.2626 23.8091 16.3997C24.2431 16.3138 24.6441 16.1852 25.058 16.03C25.1226 16.0062 25.1872 15.9823 25.2537 15.9577C25.4592 15.8817 25.6645 15.8052 25.8697 15.7287C26.139 15.6287 26.4083 15.529 26.6776 15.4292C26.7427 15.4051 26.8078 15.381 26.8748 15.3561C27.3374 15.1848 27.8013 15.0183 28.2671 14.8559C28.4295 14.7988 28.5913 14.7408 28.7529 14.6816C29.3371 14.4686 29.9027 14.3224 30.4963 14.5831C30.9069 14.8199 31.2207 15.1312 31.3649 15.5882C31.4742 16.0959 31.4225 16.5148 31.1737 16.9693C30.7908 17.5232 30.1288 17.7215 29.5228 17.9446C29.4317 17.9788 29.3406 18.0129 29.2496 18.0472C28.9352 18.165 28.6201 18.2811 28.3051 18.3972C28.1787 18.4438 28.0522 18.4905 27.9258 18.5372C27.2089 18.8017 26.4916 19.0652 25.7738 19.3273C25.4818 19.434 25.1899 19.5411 24.8984 19.6493C24.8439 19.6695 24.7894 19.6897 24.7332 19.7106C24.6313 19.7484 24.5295 19.7863 24.4277 19.8243C23.8018 20.0564 23.1711 20.1591 22.5406 19.8719C21.9004 19.5066 21.5029 18.8726 21.0734 18.2914C20.8681 18.0136 20.6589 17.7389 20.4487 17.4648C20.4147 17.4203 20.3806 17.3758 20.3455 17.3299C20.1068 17.0187 19.8672 16.7083 19.6253 16.3997C19.4557 16.6089 19.3344 16.8358 19.2133 17.0749C19.1916 17.1171 19.17 17.1593 19.1477 17.2027C19.0764 17.342 19.0054 17.4814 18.9345 17.6208C18.8843 17.7188 18.8342 17.8168 18.784 17.9147C18.6795 18.1188 18.5752 18.3229 18.4709 18.5271C18.2491 18.9612 18.0261 19.3947 17.8031 19.8281C17.7327 19.9649 17.6624 20.1017 17.5922 20.2385C17.3759 20.6593 17.1587 21.0795 16.9389 21.4985C16.9098 21.5541 16.9098 21.5541 16.8801 21.6108C16.7902 21.7823 16.7001 21.9537 16.6095 22.1248C16.5787 22.1835 16.5479 22.2422 16.5162 22.3027C16.4893 22.3535 16.4625 22.4043 16.4348 22.4567C16.3694 22.5758 16.3694 22.5758 16.3781 22.7043C17.2303 22.9728 18.0839 23.236 18.9408 23.4892C19.0383 23.518 19.0383 23.518 19.1377 23.5474C19.4641 23.6439 19.7905 23.74 20.117 23.8357C20.2396 23.8718 20.3621 23.908 20.4846 23.9442C20.5398 23.9602 20.5951 23.9762 20.652 23.9928C21.7054 24.3049 21.7054 24.3049 22.0801 24.6549C22.1288 24.699 22.1775 24.7431 22.2277 24.7886C22.5791 25.183 22.7652 25.6221 22.9373 26.1165C22.9599 26.1799 22.9825 26.2434 23.0058 26.3087C23.079 26.5141 23.1513 26.7198 23.2236 26.9255C23.2746 27.0688 23.3255 27.2121 23.3766 27.3554C23.4768 27.6366 23.5767 27.9179 23.6765 28.1992C23.8309 28.634 23.989 29.0674 24.1486 29.5004C24.1734 29.5687 24.1983 29.6369 24.2238 29.7073C24.3846 30.1481 24.5504 30.5868 24.7194 31.0246C24.8305 31.3134 24.9399 31.6029 25.0492 31.8925C25.1037 32.0356 25.1588 32.1785 25.2147 32.3211C25.5914 33.2831 25.9484 34.252 25.547 35.263C25.3007 35.7982 24.8951 36.0331 24.3711 36.2731C23.7847 36.3952 23.3019 36.2968 22.7977 35.9749C22.2054 35.5145 22.0039 34.7496 21.7601 34.0691C21.6518 33.767 21.5405 33.4661 21.4283 33.1655C21.4108 33.1185 21.3933 33.0715 21.3753 33.0232C21.3042 32.8327 21.2331 32.6422 21.162 32.4518C20.8713 31.6736 20.5905 30.8925 20.3211 30.1067C20.2174 29.8044 20.1121 29.5027 20.0059 29.2013C19.9624 29.0768 19.9195 28.9521 19.8772 28.8273C19.815 28.6442 19.7507 28.462 19.686 28.2798C19.6676 28.224 19.6491 28.1682 19.6302 28.1107C19.5344 27.8475 19.4862 27.7272 19.2408 27.5784C19.1616 27.5561 19.0824 27.5337 19.0008 27.5107C18.9564 27.4973 18.9121 27.484 18.8663 27.4702C18.7148 27.4253 18.5626 27.3843 18.4098 27.3439C18.3535 27.3288 18.2971 27.3136 18.2391 27.2979C18.1192 27.2656 17.9992 27.2335 17.8792 27.2014C17.567 27.118 17.255 27.0336 16.9431 26.9492C16.8822 26.9327 16.8213 26.9163 16.7586 26.8993C16.2564 26.7633 15.7567 26.6204 15.2578 26.4728C14.831 26.3465 14.4028 26.2255 13.974 26.1062C13.7796 26.0519 13.5851 25.9974 13.3907 25.9429C13.2569 25.9055 13.123 25.8682 12.9891 25.8311C12.7877 25.7752 12.5866 25.7184 12.3856 25.6615C12.3253 25.6449 12.2651 25.6284 12.2031 25.6114C11.3308 25.362 10.7641 25.0073 10.318 24.2104C10.0796 23.6876 10.134 23.0735 10.3246 22.5465C10.5064 22.0604 10.7379 21.6055 10.9805 21.1476C11.0271 21.0587 11.0735 20.9698 11.1199 20.8809C11.1933 20.7402 11.2668 20.5996 11.3405 20.459C11.602 19.96 11.8588 19.4586 12.1155 18.957C12.2468 18.7004 12.3784 18.4439 12.51 18.1875C12.5358 18.1372 12.5616 18.0869 12.5881 18.0351C12.8546 17.5158 13.1214 16.9966 13.3886 16.4777C13.4105 16.4351 13.4324 16.3925 13.455 16.3486C13.7437 15.7882 14.0341 15.2288 14.3314 14.6729C14.423 14.5008 14.5054 14.3379 14.5672 14.1525C12.6935 13.8789 12.6935 13.8789 10.9424 14.2947C10.5661 14.6281 10.3813 15.1094 10.2125 15.5714C10.1036 15.8533 9.94795 16.084 9.77457 16.3295C9.72093 16.4115 9.66767 16.4939 9.6148 16.5765C9.58809 16.6178 9.56138 16.6591 9.53385 16.7017C9.47092 16.7992 9.40806 16.8967 9.34524 16.9942C9.23743 17.1616 9.12939 17.3288 9.02133 17.496C8.98839 17.5473 8.95545 17.5985 8.92151 17.6514C8.08907 18.9374 8.08907 18.9374 7.4485 19.0838C6.88592 19.1461 6.41366 19.1147 5.94983 18.7717C5.60263 18.457 5.41796 18.1655 5.36465 17.692C5.3626 17.5853 5.3626 17.5853 5.3605 17.4765C5.35801 17.406 5.35551 17.3355 5.35294 17.2629C5.43264 16.7169 5.78843 16.2462 6.09594 15.7999C6.15205 15.7173 6.15205 15.7173 6.2093 15.6332C6.28859 15.5166 6.36805 15.4002 6.44765 15.2838C6.65377 14.9825 6.85871 14.6804 7.06359 14.3783C7.10332 14.3197 7.14306 14.2612 7.18399 14.2009C7.46832 13.7809 7.74538 13.3574 8.01441 12.9275C9.11927 11.1728 9.11926 11.1728 9.69652 10.9066C9.73564 10.8867 9.77476 10.8668 9.81507 10.8464C10.2794 10.6264 10.7475 10.6507 11.2488 10.6593Z" fill="#24C6D6"/>
<path d="M9.57163 25.3884C9.91203 25.4458 10.0925 25.5981 10.3583 25.8127C10.8994 26.1947 11.5771 26.3447 12.2099 26.5003C12.287 26.5197 12.364 26.5391 12.4434 26.5592C12.6308 26.6064 12.8184 26.653 13.0061 26.6992C13.0737 26.9017 13.0648 27.0098 12.9873 27.2074C12.9678 27.258 12.9483 27.3086 12.9282 27.3607C12.9063 27.4154 12.8843 27.47 12.8617 27.5263C12.8391 27.584 12.8164 27.6417 12.7931 27.7012C12.7194 27.8878 12.6444 28.0739 12.569 28.2598C12.5445 28.3201 12.52 28.3805 12.4948 28.4426C12.3154 28.8828 12.1307 29.3206 11.9445 29.7579C11.9006 29.862 11.9006 29.862 11.8558 29.9682C11.7664 30.1793 11.6761 30.39 11.5855 30.6006C11.5447 30.6972 11.5447 30.6972 11.5031 30.7958C11.2213 31.4436 10.8435 32.022 10.1844 32.3289C9.77778 32.4786 9.34871 32.5228 8.92132 32.5788C8.66002 32.6143 8.40232 32.6608 8.14345 32.711C7.36518 32.8609 6.58067 32.9756 5.79762 33.0974C4.4812 33.3013 4.4812 33.3013 3.16848 33.5273C2.3038 33.6807 1.57257 33.8095 0.786416 33.3432C0.364231 33.0466 0.10601 32.5714 0.0175631 32.0675C-0.0524366 31.4655 0.0855772 30.9538 0.453702 30.4684C0.894038 29.9923 1.34259 29.8472 1.96799 29.732C2.03306 29.7201 2.03306 29.7201 2.09944 29.7078C2.60537 29.6154 3.11248 29.5299 3.61985 29.4458C3.66899 29.4376 3.71812 29.4294 3.76875 29.421C4.3819 29.319 4.99521 29.2216 5.61097 29.1365C6.04469 29.0764 6.47738 29.0106 6.90992 28.9425C6.9757 28.9324 7.04148 28.9222 7.10925 28.9118C7.20256 28.8969 7.20256 28.8969 7.29776 28.8818C7.35253 28.8732 7.40729 28.8646 7.46372 28.8557C7.54892 28.8388 7.54892 28.8388 7.63584 28.8216C7.71089 28.8074 7.78594 28.7932 7.86327 28.7786C8.08243 28.7155 8.08243 28.7155 8.18619 28.5334C8.21354 28.4648 8.24089 28.3961 8.26907 28.3254C8.29241 28.269 8.29241 28.269 8.31622 28.2116C8.36669 28.089 8.41491 27.9657 8.46323 27.8423C8.51523 27.7149 8.56783 27.5878 8.62049 27.4606C8.65608 27.3747 8.69149 27.2886 8.72673 27.2025C8.89592 26.7907 9.0842 26.3896 9.27892 25.9892C9.30852 25.9281 9.33812 25.8669 9.36862 25.804C9.43599 25.6653 9.50362 25.5267 9.57163 25.3884Z" fill="#24C6D6"/>
<path d="M22.9348 3.29118C23.008 3.32223 23.0812 3.35329 23.1566 3.3853C24.2146 3.8613 24.8308 4.66121 25.2453 5.72561C25.5473 6.63261 25.4062 7.67426 25.0402 8.53629C24.8214 8.97065 24.5253 9.31498 24.1837 9.65817C24.1468 9.69727 24.1098 9.73638 24.0718 9.77667C23.3728 10.4584 22.3605 10.7751 21.4049 10.8052C20.2905 10.7714 19.2788 10.3424 18.5061 9.53235C17.783 8.6687 17.4947 7.65037 17.5646 6.53709C17.6864 5.46909 18.1493 4.59449 18.9803 3.901C20.1245 3.03993 21.5809 2.71139 22.9348 3.29118Z" fill="#24C6D6"/>
<path d="M24.8706 31.7554C25.0295 31.8348 25.0388 31.8927 25.1009 32.0558C25.1179 32.0987 25.1349 32.1416 25.1524 32.1857C25.1871 32.3355 25.1687 32.4226 25.1204 32.5669C24.9331 32.1533 24.9331 32.1533 24.9331 31.9426C24.8919 31.9426 24.8506 31.9426 24.8082 31.9426C24.8288 31.8808 24.8494 31.819 24.8706 31.7554Z" fill="#24C6D6"/>
<path d="M5.70005 16.4621C5.72065 16.5033 5.74126 16.5445 5.76249 16.587C5.71395 16.7084 5.71395 16.7084 5.6415 16.8444C5.61776 16.8897 5.59401 16.9349 5.56955 16.9815C5.55079 17.0161 5.53204 17.0507 5.51271 17.0863C5.47393 16.9742 5.47393 16.9742 5.45027 16.8366C5.57125 16.6338 5.57125 16.6338 5.70005 16.4621Z" fill="#24C6D6"/>
<path fill-rule="evenodd" clip-rule="evenodd" d="M38.4654 26.1703V28.6918L28.9454 34.9261C28.5247 38.7108 24.7385 39.9724 22.6351 38.7108L5.38721 50L4.47183 48.8034L15.3636 41.5451C15.8539 41.2183 16.3443 40.8916 16.8343 40.5644C18.1662 39.675 19.5006 38.7898 20.8387 37.9097L21.0051 37.8002C21.1109 37.7307 21.2167 37.6613 21.3226 37.592C21.5447 37.4465 21.7656 37.3001 21.9824 37.1467L22.1831 37.0061L22.349 36.8863C22.5282 36.7962 22.606 36.8062 22.7943 36.8661L22.9143 36.9281C23.5239 37.2246 24.3344 37.2181 24.9836 37.069C25.6861 36.8175 26.1949 36.4046 26.5566 35.7504C26.7727 35.2747 26.8554 34.776 26.918 34.2611C26.948 34.0429 26.969 33.91 27.105 33.7324C27.2517 33.6219 27.3991 33.5211 27.5558 33.4252C27.8962 33.2132 28.2303 32.9929 28.5634 32.7696C28.7646 32.635 28.966 32.5008 29.1675 32.3666L38.4654 26.1703Z" fill="#24C6D6"/>
<path d="M30 17V0.784501C30 0.523001 30.1333 0 30.6667 0C31.2 0 31.1852 0.871801 31.1111 1.3077C33.4222 2.14463 35.3333 1.65634 36 1.30758C38.3111 -0.157044 40.963 0.522961 42 1.04604V8.89225C42 9.31071 41.7037 9.24097 41.5556 9.15379C40 8.63071 37.3333 8.36917 35.5556 9.41533C34.1333 10.2523 32 9.76405 31.1111 9.41533V17H30Z" fill="#24C6D6"/>
<path d="M35.268 8V6.11H33V4.89H35.268V3H36.732V4.89H39V6.11H36.732V8H35.268Z" fill="white"/>
</svg>
