<svg width="29" height="41" viewBox="0 0 29 41" fill="none" xmlns="http://www.w3.org/2000/svg">
<path d="M10.9446 5.88306C11.0112 5.88269 11.0779 5.88232 11.1466 5.88194C11.3672 5.88086 11.5878 5.88035 11.8084 5.87994C11.9623 5.87952 12.1161 5.87909 12.27 5.87866C12.5929 5.87788 12.9158 5.87745 13.2388 5.87719C13.6507 5.87678 14.0626 5.875 14.4745 5.87289C14.7926 5.8715 15.1107 5.87112 15.4289 5.871C15.5806 5.87078 15.7323 5.87019 15.884 5.86921C17.0543 5.86219 18.2859 5.87529 19.1804 6.74622C19.5244 7.09984 19.7626 7.49618 20.0072 7.92212C20.0539 8.00153 20.1005 8.08095 20.1485 8.16277C20.2478 8.33205 20.3468 8.50148 20.4454 8.67119C20.6067 8.94842 20.7703 9.22423 20.9344 9.49985C20.9893 9.59211 21.0442 9.68437 21.0991 9.77663C21.1257 9.82145 21.1524 9.86626 21.1799 9.91244C21.307 10.1262 21.4339 10.3402 21.5606 10.5543C21.6029 10.6256 21.6452 10.697 21.6887 10.7705C21.7498 10.8754 21.8084 10.9818 21.8627 11.0903C21.9291 11.0833 21.9955 11.0763 22.0639 11.0691C22.6916 11.0032 23.3194 10.9386 23.9474 10.8756C24.2701 10.8431 24.5929 10.8102 24.9155 10.776C25.2272 10.743 25.539 10.7113 25.851 10.6807C25.9696 10.6688 26.0882 10.6564 26.2067 10.6435C27.5747 10.4951 27.5747 10.4951 28.1223 10.932C28.1614 10.9812 28.2006 11.0304 28.2409 11.0811C28.3016 11.1542 28.3016 11.1542 28.3635 11.2289C28.6487 11.6603 28.6649 12.0706 28.6166 12.5747C28.5238 12.8252 28.5238 12.8252 28.394 13.02C28.3343 13.1165 28.3343 13.1165 28.2734 13.2148C27.6955 13.7927 26.8292 13.7843 26.0613 13.8631C25.9277 13.8776 25.7942 13.8921 25.6607 13.9068C25.3816 13.9371 25.1026 13.9667 24.8234 13.9958C24.4675 14.0328 24.1118 14.0712 23.7562 14.1101C23.4806 14.1401 23.205 14.1697 22.9294 14.1991C22.7983 14.2131 22.6672 14.2271 22.5362 14.2413C20.5466 14.4553 20.5466 14.4553 20.1207 14.1655C19.6445 13.7189 19.3615 13.0364 19.061 12.468C18.9765 12.3087 18.8919 12.1496 18.807 11.9905C18.7518 11.8861 18.7518 11.8861 18.6954 11.7796C18.6027 11.6027 18.6027 11.6027 18.4487 11.4614C18.4245 11.5064 18.4003 11.5515 18.3754 11.5978C17.8504 12.5744 17.3166 13.5451 16.7689 14.509C16.4902 14.9996 16.2146 15.4918 15.9391 15.9841C15.8933 16.066 15.8475 16.1479 15.8003 16.2323C15.6935 16.4232 15.5867 16.6142 15.4799 16.8052C15.6793 17.0046 15.9126 17.0788 16.1705 17.1803C16.2257 17.2024 16.2808 17.2245 16.3377 17.2473C16.4566 17.295 16.5756 17.3424 16.6947 17.3898C17.0075 17.5143 17.3197 17.6403 17.632 17.7663C17.7262 17.8042 17.7262 17.8042 17.8223 17.843C18.403 18.0775 18.981 18.3179 19.5573 18.5632C19.6842 18.6167 19.6842 18.6167 19.8137 18.6712C20.4895 18.9606 21.0849 19.2469 21.3749 19.9604C21.4036 20.0552 21.431 20.1503 21.4573 20.2457C21.4725 20.2973 21.4877 20.349 21.5033 20.4022C21.5503 20.5635 21.5954 20.7252 21.6401 20.8872C21.654 20.937 21.6679 20.9868 21.6822 21.0381C21.78 21.3902 21.8733 21.7433 21.9659 22.0967C21.9951 22.2075 22.0244 22.3182 22.0537 22.429C22.1295 22.7162 22.205 23.0036 22.2805 23.291C22.3577 23.5847 22.4352 23.8783 22.5127 24.172C22.6256 24.5999 22.7383 25.0279 22.8508 25.4559C22.8733 25.5414 22.8957 25.6268 22.9189 25.7148C22.9377 25.7871 22.9566 25.8595 22.976 25.9341C22.9976 26.0142 22.9976 26.0142 23.0197 26.096C23.1661 26.743 23.1153 27.4386 22.782 28.011C22.6791 28.1606 22.6791 28.1606 22.5559 28.2931C22.4119 28.5312 22.4354 28.7592 22.4472 29.0281C22.453 29.2092 22.456 29.3895 22.4565 29.5708C22.3233 29.704 22.1212 29.6903 21.9406 29.7161C21.8935 29.7229 21.8463 29.7298 21.7977 29.7368C21.6929 29.752 21.5881 29.767 21.4832 29.7818C21.3085 29.8067 21.1338 29.8318 20.9592 29.8571C20.6981 29.8948 20.4371 29.9324 20.176 29.9698C19.44 30.0754 18.7041 30.1822 17.9683 30.2892C17.8868 30.3011 17.8053 30.3129 17.7213 30.3251C16.1825 30.5489 14.6446 30.7783 13.1068 31.0091C12.9201 31.0371 12.7334 31.0651 12.5466 31.0932C11.3609 31.2711 10.1752 31.4492 8.98962 31.6278C8.51206 31.6998 8.03448 31.7716 7.55689 31.8433C7.22274 31.8934 6.88862 31.9438 6.55452 31.9943C6.30205 32.0324 6.04953 32.0702 5.79702 32.1081C5.70643 32.1219 5.61585 32.1356 5.52252 32.1498C5.43987 32.1621 5.35722 32.1745 5.27207 32.1872C5.20046 32.198 5.12886 32.2088 5.05509 32.2199C4.86662 32.2427 4.86662 32.2427 4.56975 32.2427C4.56995 32.2844 4.57016 32.3261 4.57037 32.3691C4.57529 33.385 4.57896 34.4009 4.58128 35.4168C4.58245 35.9081 4.58402 36.3994 4.58654 36.8907C4.58896 37.3647 4.59029 37.8387 4.59087 38.3127C4.59128 38.4936 4.59209 38.6746 4.59329 38.8555C4.5949 39.1088 4.59513 39.3619 4.59503 39.6152C4.59583 39.6902 4.59663 39.7652 4.59745 39.8425C4.59461 40.4846 4.59461 40.4846 4.34709 40.7778C4.04198 40.9907 3.8071 41.0358 3.44893 40.9747C3.16782 40.8781 2.99251 40.6663 2.86272 40.4067C2.85513 40.2648 2.85236 40.1226 2.85179 39.9805C2.85126 39.8898 2.85073 39.799 2.85018 39.7056C2.84997 39.6045 2.84977 39.5033 2.84958 39.4022C2.84911 39.2962 2.84862 39.1901 2.8481 39.0841C2.84681 38.7955 2.84603 38.5069 2.84541 38.2183C2.84503 38.038 2.84458 37.8577 2.84412 37.6774C2.8427 37.1133 2.84164 36.5492 2.84103 35.9852C2.8403 35.334 2.83835 34.6828 2.83535 34.0316C2.83311 33.5284 2.83201 33.0251 2.83177 32.5219C2.83159 32.2213 2.83093 31.9207 2.82906 31.6201C2.82733 31.3372 2.82702 31.0543 2.82778 30.7714C2.82782 30.6677 2.82735 30.564 2.82633 30.4603C2.81731 29.4881 2.81731 29.4881 3.15959 29.1255C3.41302 28.9332 3.66672 28.9451 3.976 28.977C4.2742 29.1346 4.44565 29.2577 4.56975 29.5708C4.5866 29.7271 4.5866 29.7271 4.58424 29.892C4.58377 29.9513 4.58329 30.0107 4.58279 30.0718C4.58155 30.133 4.58031 30.1942 4.57903 30.2573C4.57836 30.3197 4.57769 30.3821 4.577 30.4463C4.57525 30.5998 4.57259 30.7533 4.56975 30.9067C4.65264 30.8936 4.73553 30.8805 4.82093 30.867C7.6209 30.424 10.4228 29.9941 13.2254 29.5675C13.9651 29.455 14.7048 29.3421 15.4444 29.2289C15.9735 29.1479 16.5026 29.0672 17.0317 28.9868C17.3447 28.9392 17.6576 28.8915 17.9705 28.8435C18.2617 28.7988 18.5529 28.7544 18.8442 28.7104C18.9505 28.6943 19.0568 28.678 19.1631 28.6616C19.3085 28.6391 19.4539 28.6172 19.5993 28.5954C19.6804 28.583 19.7614 28.5706 19.845 28.5579C20.0987 28.5298 20.3459 28.5273 20.601 28.5317C20.5723 28.5001 20.5436 28.4684 20.514 28.4358C19.9263 27.7302 19.8132 26.7977 19.639 25.9202C19.568 25.5708 19.4896 25.223 19.4119 24.875C19.3446 24.5719 19.2805 24.2687 19.2229 23.9636C19.0119 22.6342 19.0119 22.6342 18.3313 21.5235C17.8733 21.2334 17.3781 21.0922 16.8561 20.9596C16.4195 20.8394 16.0097 20.6582 15.593 20.4828C15.4303 20.4174 15.2675 20.3524 15.1045 20.2878C15.0245 20.256 14.9445 20.2242 14.8621 20.1914C14.7813 20.1593 14.7004 20.1271 14.6171 20.094C14.4471 20.0262 14.2771 19.9584 14.1071 19.8906C13.6989 19.7278 13.2906 19.5652 12.8822 19.4028C12.691 19.6344 12.5232 19.8639 12.3734 20.1241C12.334 20.1923 12.2945 20.2605 12.2539 20.3307C12.2117 20.4042 12.1696 20.4776 12.1261 20.5532C12.0339 20.7124 11.9416 20.8716 11.8493 21.0307C11.6932 21.3006 11.5374 21.5706 11.3817 21.8408C11.2419 22.0835 11.1014 22.3258 10.9607 22.568C10.9063 22.6619 10.8521 22.7559 10.7982 22.85C10.0339 24.1823 10.0339 24.1823 9.53313 24.4033C9.48548 24.4253 9.43784 24.4473 9.38875 24.47C9.09516 24.5805 8.82803 24.6101 8.5145 24.6202C8.42648 24.6232 8.33846 24.6261 8.24776 24.6292C8.10448 24.6335 8.10448 24.6335 7.9583 24.6379C7.85774 24.6411 7.75719 24.6443 7.65664 24.6476C7.33277 24.6579 7.00888 24.6675 6.68498 24.677C6.63031 24.6786 6.57563 24.6802 6.5193 24.6819C3.74777 24.7637 3.74777 24.7637 2.68396 24.7728C2.57542 24.7739 2.46688 24.7754 2.35835 24.7775C1.37943 24.7949 1.37943 24.7949 0.933029 24.4497C0.565353 24.0904 0.353882 23.6851 0.332031 23.1633C0.369443 22.6277 0.569903 22.2599 0.9655 21.9031C1.34788 21.5793 1.71545 21.5338 2.20482 21.5356C2.32869 21.5347 2.45257 21.5338 2.57644 21.533C2.67443 21.5326 2.67443 21.5326 2.7744 21.5323C3.12202 21.5303 3.46956 21.5235 3.81712 21.5173C4.2587 21.5097 4.70011 21.5036 5.14175 21.5035C5.49944 21.5033 5.85669 21.4977 6.21425 21.4885C6.34998 21.486 6.48576 21.4854 6.62151 21.4869C7.33582 21.5158 7.33582 21.5158 7.95632 21.2235C8.16782 20.9589 8.31161 20.669 8.44291 20.3582C8.53327 20.1504 8.64623 19.9564 8.75876 19.76C8.83628 19.6164 8.91349 19.4726 8.9904 19.3286C9.07341 19.1737 9.15643 19.0188 9.23944 18.8639C9.2787 18.7905 9.31796 18.717 9.35842 18.6414C9.45175 18.4684 9.54681 18.2968 9.64359 18.1257C9.91313 17.6454 10.1205 17.1769 10.2985 16.6567C10.5464 15.9392 10.9077 15.3088 11.2892 14.6549C11.5523 14.2025 11.7944 13.7407 12.0334 13.2751C12.4386 12.4881 12.858 11.7099 13.2842 10.934C13.5042 10.5322 13.7219 10.1294 13.9399 9.72656C14.0037 9.60859 14.0037 9.60859 14.0689 9.48823C14.1681 9.30483 14.2674 9.12141 14.3666 8.93799C13.9179 8.91208 13.4696 8.89335 13.0203 8.88091C12.8679 8.87572 12.7156 8.86865 12.5634 8.8596C11.7235 8.78552 11.7235 8.78552 10.9458 9.03697C10.6803 9.27435 10.481 9.5482 10.2928 9.84892C10.1724 10.036 10.0299 10.2023 9.88567 10.3713C9.80674 10.4685 9.80674 10.4685 9.72621 10.5676C9.44819 10.9092 9.16786 11.2489 8.88725 11.5884C8.68994 11.8273 8.49332 12.0665 8.30127 12.3097C8.24396 12.3819 8.18665 12.454 8.12761 12.5283C8.07929 12.5901 8.03098 12.6519 7.9812 12.7156C7.65909 13.0601 7.34361 13.1538 6.88908 13.1917C6.43781 13.1849 6.11213 12.9803 5.77116 12.7C5.521 12.3926 5.40058 12.1156 5.35832 11.7212C5.42754 11.0752 5.79778 10.6822 6.20256 10.1997C6.31247 10.0653 6.42225 9.93077 6.53191 9.79614C6.64476 9.65851 6.75763 9.5209 6.87053 9.3833C6.98188 9.24725 7.09321 9.11118 7.20451 8.9751C7.87248 8.15869 7.87248 8.15869 8.03947 7.95488C8.15118 7.81815 8.26251 7.68112 8.37346 7.54378C8.65163 7.20041 8.93295 6.85986 9.22234 6.52588C9.27314 6.46694 9.32394 6.40801 9.37628 6.34729C9.84148 5.91213 10.3388 5.88386 10.9446 5.88306Z" fill="#24C6D6"/>
<path d="M23.4332 0.972518C24.0239 1.50408 24.4178 2.29332 24.4781 3.08427C24.4999 4.09269 24.2438 4.8392 23.5697 5.59814C22.857 6.26252 22.0263 6.5259 21.064 6.50703C20.2121 6.44229 19.4628 6.01644 18.8806 5.40013C18.3443 4.71307 18.0643 3.86961 18.1518 3.00049C18.298 2.09382 18.6927 1.35302 19.4135 0.773925C20.7379 -0.10768 22.1894 0.00758958 23.4332 0.972518Z" fill="#24C6D6"/>
<path d="M27.2297 25.9155C27.4275 26.0812 27.4914 26.1446 27.5776 26.3794C27.5958 26.6211 27.5958 26.6211 27.5954 26.9138C27.5955 26.9677 27.5957 27.0216 27.5958 27.0771C27.596 27.2578 27.5952 27.4384 27.5944 27.619C27.5944 27.7485 27.5944 27.8779 27.5945 28.0074C27.5945 28.359 27.5936 28.7106 27.5926 29.0622C27.5917 29.4296 27.5916 29.797 27.5914 30.1644C27.591 30.8601 27.5897 31.5559 27.5883 32.2516C27.5866 33.0437 27.5858 33.8358 27.585 34.6279C27.5835 36.2573 27.5808 37.8867 27.5776 39.5161C27.0142 39.5161 26.4509 39.5161 25.8705 39.5161C25.8637 37.811 25.8584 36.1059 25.8551 34.4007C25.8536 33.609 25.8515 32.8173 25.8481 32.0256C25.8452 31.3356 25.8433 30.6455 25.8426 29.9555C25.8422 29.5901 25.8413 29.2247 25.8391 28.8593C25.8371 28.5154 25.8365 28.1715 25.837 27.8275C25.8369 27.7013 25.8363 27.5751 25.8351 27.4489C25.8337 27.2765 25.834 27.1041 25.8348 26.9317C25.8346 26.8352 25.8343 26.7387 25.834 26.6394C25.8827 26.2931 26.0211 26.045 26.3019 25.832C26.6553 25.7311 26.9039 25.7434 27.2297 25.9155Z" fill="#24C6D6"/>
<path d="M10.1362 17.2505C10.1606 17.2995 10.1851 17.3485 10.2104 17.3989C10.1417 17.5894 10.1417 17.5894 10.0387 17.8118C10.0054 17.8853 9.97196 17.9589 9.93756 18.0347C9.83928 18.2153 9.83928 18.2153 9.69084 18.2895C9.73397 18.0105 9.81345 17.8049 9.95525 17.5613C9.98902 17.5026 10.0228 17.444 10.0576 17.3836C10.0965 17.3177 10.0965 17.3177 10.1362 17.2505Z" fill="#24C6D6"/>
<path d="M9.83928 6.11767C9.76506 6.34033 9.76506 6.34033 9.6259 6.41455C9.57385 6.43904 9.52181 6.46353 9.46819 6.48877C9.34133 6.60316 9.34133 6.60316 9.24553 6.71142C9.19654 6.68693 9.14756 6.66244 9.09709 6.63721C9.19256 6.55018 9.28852 6.46369 9.38469 6.37744C9.46477 6.30511 9.46477 6.30511 9.54646 6.23132C9.69084 6.11767 9.69084 6.11767 9.83928 6.11767Z" fill="#24C6D6"/>
<path d="M16.4447 29.1255C16.4447 29.1745 16.4447 29.2235 16.4447 29.2739C16.2488 29.3229 16.0529 29.3719 15.851 29.4224C15.851 29.3734 15.851 29.3244 15.851 29.2739C15.802 29.2494 15.753 29.2249 15.7026 29.1997C16.1943 29.1255 16.1943 29.1255 16.4447 29.1255Z" fill="#24C6D6"/>
<path d="M1.00725 21.852C1.00725 22.0747 1.00725 22.0747 0.89592 22.1999C0.859182 22.2321 0.822443 22.2642 0.784592 22.2974C0.809084 22.3463 0.833576 22.3953 0.85881 22.4458C0.760842 22.4703 0.662873 22.4948 0.561935 22.52C0.659329 22.2278 0.778588 22.0578 1.00725 21.852Z" fill="#24C6D6"/>
<path d="M8.28069 20.6645C8.3549 20.813 8.3549 20.813 8.34563 20.9521C8.25415 21.1743 8.10148 21.269 7.90959 21.4067C7.99538 21.1164 8.0844 20.8965 8.28069 20.6645Z" fill="#24C6D6"/>
</svg>
